<svg xmlns="http://www.w3.org/2000/svg" viewBox="0 0 320 240" role="img" aria-label="Rating / thank-you (placeholder)">
  <rect width="320" height="240" rx="18" fill="#F5F2EC"/>
  <g fill="#E08A00">
    <path d="M110 92 l6 12 13 2 -9 9 2 13 -12 -6 -12 6 2 -13 -9 -9 13 -2 z"/>
    <path d="M160 84 l7 14 15 2 -11 11 3 15 -14 -7 -14 7 3 -15 -11 -11 15 -2 z"/>
    <path d="M210 92 l6 12 13 2 -9 9 2 13 -12 -6 -12 6 2 -13 -9 -9 13 -2 z"/>
  </g>
  <text x="160" y="180" text-anchor="middle" font-family="Arial, Helvetica, sans-serif" font-size="16" font-weight="700" fill="#16202E">Rahmat!</text>
  <text x="160" y="206" text-anchor="middle" font-family="Arial, Helvetica, sans-serif" font-size="11" fill="#143C8C">RATING / THANK-YOU (placeholder)</text>
</svg>
