<svg xmlns="http://www.w3.org/2000/svg" width="0" height="0" style="position:absolute;width:0;height:0;overflow:hidden" aria-hidden="true" focusable="false"><defs>
  <!-- girih star-lattice patterns (subtle background motif) -->
  <pattern id="girih" width="52" height="52" patternUnits="userSpaceOnUse"><g fill="none" stroke="#7C9AD6" stroke-width="0.8"><path d="M0 26 26 0 52 26 26 52Z"></path><path d="M0 0 52 52M52 0 0 52"></path><path d="M26 0V52M0 26H52"></path></g></pattern>
  <pattern id="girih-lt" width="44" height="44" patternUnits="userSpaceOnUse"><g fill="none" stroke="#ffffff" stroke-width="1.2"><path d="M0 22 22 0 44 22 22 44Z"></path><path d="M0 0 44 44M44 0 0 44"></path></g></pattern>

  <!-- brand mark: a majolica dome with a cobalt shell, turquoise core and a gold-white star notch -->
  <symbol id="logo-mark" viewBox="0 0 24 24">
    <path d="M12 1.6c5 0 7.6 3.6 7.6 8.2V21a1 1 0 0 1-1 1H5.4a1 1 0 0 1-1-1V9.8C4.4 5.2 7 1.6 12 1.6Z" fill="var(--co-primary,#143C8C)"></path>
    <path d="M12 6.2c2.8 0 4.3 2.2 4.3 5V22H7.7V11.2c0-2.8 1.5-5 4.3-5Z" fill="var(--co-accent,#1CA5A0)"></path>
    <path d="M12 9.2l2 2-2 2-2-2z" fill="#fff"></path>
  </symbol>

  <!-- UI icons -->
  <symbol id="ic-camera" viewBox="0 0 24 24"><path d="M9.2 3.5c-.5 0-1 .3-1.2.8L7.2 6H4.5A2.5 2.5 0 0 0 2 8.5v9A2.5 2.5 0 0 0 4.5 20h15a2.5 2.5 0 0 0 2.5-2.5v-9A2.5 2.5 0 0 0 19.5 6h-2.7l-.8-1.7c-.2-.5-.7-.8-1.2-.8H9.2Z" fill="currentColor"></path><circle cx="12" cy="13" r="4" fill="#fff" opacity=".92"></circle><circle cx="12" cy="13" r="2" fill="currentColor"></circle></symbol>
  <symbol id="ic-image" viewBox="0 0 24 24"><rect x="3" y="4" width="18" height="16" rx="3" fill="none" stroke="currentColor" stroke-width="1.9"></rect><circle cx="8.5" cy="9.5" r="1.8" fill="currentColor"></circle><path d="M4 17l4.5-4.5 3.5 3.5 3.5-3.5L20 16.5" fill="none" stroke="currentColor" stroke-width="1.9" stroke-linecap="round" stroke-linejoin="round"></path></symbol>
  <symbol id="ic-back" viewBox="0 0 24 24"><path d="M15 5l-7 7 7 7" fill="none" stroke="currentColor" stroke-width="2.2" stroke-linecap="round" stroke-linejoin="round"></path></symbol>
  <symbol id="ic-chevright" viewBox="0 0 24 24"><path d="M9 5l7 7-7 7" fill="none" stroke="currentColor" stroke-width="2.2" stroke-linecap="round" stroke-linejoin="round"></path></symbol>
  <symbol id="ic-doc" viewBox="0 0 24 24"><path d="M6 3h8l4 4v13a1 1 0 0 1-1 1H6a1 1 0 0 1-1-1V4a1 1 0 0 1 1-1Z" fill="none" stroke="currentColor" stroke-width="1.9" stroke-linejoin="round"></path><path d="M13 3v5h5M8.5 13h7M8.5 16.5h5" fill="none" stroke="currentColor" stroke-width="1.9" stroke-linecap="round"></path></symbol>
  <symbol id="ic-pin" viewBox="0 0 24 24"><path d="M12 22s7-6.4 7-12A7 7 0 0 0 5 10c0 5.6 7 12 7 12Z" fill="none" stroke="currentColor" stroke-width="1.9" stroke-linejoin="round"></path><circle cx="12" cy="10" r="2.6" fill="currentColor"></circle></symbol>
  <symbol id="ic-refresh" viewBox="0 0 24 24"><path d="M3 12a9 9 0 1 0 3-6.7" fill="none" stroke="currentColor" stroke-width="2.2" stroke-linecap="round" stroke-linejoin="round"></path><path d="M3 4v5h5" fill="none" stroke="currentColor" stroke-width="2.2" stroke-linecap="round" stroke-linejoin="round"></path></symbol>
  <symbol id="ic-send" viewBox="0 0 24 24"><path d="M21.9 4.3 18.6 20c-.24 1.1-.9 1.36-1.82.85l-5.03-3.7-2.43 2.34c-.27.27-.5.5-1 .5l.36-5.13L17.98 6.4c.4-.36-.09-.56-.63-.2L5.7 13.4l-4.96-1.55c-1.08-.34-1.1-1.08.23-1.6L20.5 2.72c.9-.33 1.68.2 1.4 1.58Z" fill="currentColor"></path></symbol>
  <symbol id="ic-star" viewBox="0 0 24 24"><path d="M12 2l2.6 6.3 6.8.5-5.2 4.4 1.6 6.6L12 16.9 6.2 20.4l1.6-6.6L2.6 9.4l6.8-.5z" fill="currentColor"></path></symbol>

  <!-- map pin marker (cobalt teardrop + white star) -->
  <symbol id="pin-marker" viewBox="0 0 46 58"><path d="M23 2C11.4 2 2 11.4 2 23c0 13 21 33 21 33s21-20 21-33C44 11.4 34.6 2 23 2Z" fill="var(--co-primary,#143C8C)" stroke="#fff" stroke-width="3"></path><path d="M23 12l4 8 8 .6-6 5.4 2 8-8-4.6-8 4.6 2-8-6-5.4 8-.6z" fill="#fff"></path></symbol>

  <!-- category icons -->
  <symbol id="cat-road" viewBox="0 0 24 24"><path d="M4 20L7.5 4h9L20 20" fill="none" stroke="currentColor" stroke-width="1.9" stroke-linejoin="round"></path><path d="M11.8 4v3M12.2 11v3M12 18v2" stroke="currentColor" stroke-width="1.9" stroke-linecap="round"></path><path d="M13.5 11.5c1.6.1 3 .7 3 1.6 0 1-1.7 1.7-3.5 1.5-1.4-.2-2.3-.9-2.2-1.7.1-.7 1-1.2 2.2-1.4Z" fill="currentColor"></path></symbol>
  <symbol id="cat-light" viewBox="0 0 24 24"><path d="M11 22V9" stroke="currentColor" stroke-width="1.9" stroke-linecap="round"></path><path d="M11 6C7 6 5 7.5 4 9h14c-1-1.5-3-3-7-3Z" fill="currentColor"></path><path d="M11 6V3" stroke="currentColor" stroke-width="1.9" stroke-linecap="round"></path><path d="M8.5 9.5l-1.5 5h8l-1.5-5" fill="none" stroke="currentColor" stroke-width="1.6" opacity=".55" stroke-linejoin="round"></path><path d="M6 22h10" stroke="currentColor" stroke-width="1.9" stroke-linecap="round"></path></symbol>
  <symbol id="cat-trash" viewBox="0 0 24 24"><path d="M4 7h16M9 7V4.5a1 1 0 0 1 1-1h4a1 1 0 0 1 1 1V7" fill="none" stroke="currentColor" stroke-width="1.9" stroke-linecap="round" stroke-linejoin="round"></path><path d="M6 7l1 12.5a1 1 0 0 0 1 .9h8a1 1 0 0 0 1-.9L18 7" fill="none" stroke="currentColor" stroke-width="1.9" stroke-linejoin="round"></path><path d="M10 11v6M14 11v6" stroke="currentColor" stroke-width="1.7" stroke-linecap="round"></path></symbol>
  <symbol id="cat-water" viewBox="0 0 24 24"><path d="M3 8h9v3H3zM12 8h4a3 3 0 0 1 3 3v2" fill="none" stroke="currentColor" stroke-width="1.9" stroke-linejoin="round"></path><path d="M3 11v3M12 11v3" stroke="currentColor" stroke-width="1.9" stroke-linecap="round"></path><path d="M18.5 15.5c1.2 1.2 1.2 3 0 4.2a3 3 0 0 1-4.2 0c-1.2-1.2 2.1-4.2 2.1-4.2S17.3 14.3 18.5 15.5Z" fill="currentColor"></path></symbol>
  <symbol id="cat-sewer" viewBox="0 0 24 24"><circle cx="12" cy="12" r="8.5" fill="none" stroke="currentColor" stroke-width="1.9"></circle><circle cx="12" cy="12" r="4" fill="none" stroke="currentColor" stroke-width="1.5"></circle><path d="M12 3.5v3M12 17.5v3M3.5 12h3M17.5 12h3M6 6l2 2M18 6l-2 2M6 18l2-2M18 18l-2-2" stroke="currentColor" stroke-width="1.5" stroke-linecap="round"></path></symbol>
  <symbol id="cat-sign" viewBox="0 0 24 24"><path d="M9 21V9" stroke="currentColor" stroke-width="1.9" stroke-linecap="round"></path><path d="M9 4.5l8 2.2-2 3.3 2 3.3-8-2.2z" fill="currentColor" transform="rotate(-7 12 9)"></path><path d="M6 21h6" stroke="currentColor" stroke-width="1.9" stroke-linecap="round"></path></symbol>
  <symbol id="cat-tree" viewBox="0 0 24 24"><path d="M12 21v-6" stroke="currentColor" stroke-width="1.9" stroke-linecap="round"></path><path d="M12 15c-3.9 0-6-2-6-4.5C6 8.3 7.4 7 8.2 7 8 5 9.6 3 12 3s4 2 3.8 4c.8 0 2.2 1.3 2.2 3.5 0 2.5-2.1 4.5-6 4.5Z" fill="currentColor"></path><path d="M12 17.5l4.5 3.5M12 19l-3 2" stroke="currentColor" stroke-width="1.7" stroke-linecap="round"></path></symbol>
  <symbol id="cat-bus" viewBox="0 0 24 24"><rect x="4" y="4" width="16" height="13" rx="3" fill="none" stroke="currentColor" stroke-width="1.9"></rect><path d="M4 11h16M9 4v7" fill="none" stroke="currentColor" stroke-width="1.6"></path><circle cx="8" cy="20" r="1.6" fill="currentColor"></circle><circle cx="16" cy="20" r="1.6" fill="currentColor"></circle><path d="M6 17v2M18 17v2" stroke="currentColor" stroke-width="1.7" stroke-linecap="round"></path></symbol>
  <symbol id="cat-other" viewBox="0 0 24 24"><path d="M12 3l2 3.4 3.9.3-2.5 3 .9 3.8L12 15l-4.2 1.5.9-3.8-2.5-3 3.9-.3z" fill="none" stroke="currentColor" stroke-width="1.7" stroke-linejoin="round"></path><circle cx="7" cy="19" r="1.4" fill="currentColor"></circle><circle cx="12" cy="19" r="1.4" fill="currentColor"></circle><circle cx="17" cy="19" r="1.4" fill="currentColor"></circle></symbol>
</defs></svg>
